<svg height="512pt" viewBox="-98 0 512 512" width="512pt" xmlns="http://www.w3.org/2000/svg"><path d="m195 127.5c0-20.679688-16.820312-37.5-37.5-37.5s-37.5 16.820312-37.5 37.5 16.820312 37.5 37.5 37.5 37.5-16.824219 37.5-37.5zm-60 0c0-12.40625 10.09375-22.5 22.5-22.5s22.5 10.09375 22.5 22.5-10.09375 22.5-22.5 22.5-22.5-10.09375-22.5-22.5zm0 0"/><path d="m312.804688 109.769531-107.574219-107.574219c-1.410157-1.40625-3.316407-2.195312-5.304688-2.195312h-84.851562c-1.988281 0-3.898438.789062-5.304688 2.195312l-107.574219 107.574219c-1.40625 1.410157-2.195312 3.316407-2.195312 5.304688v389.425781c0 4.140625 3.355469 7.5 7.5 7.5h300c4.140625 0 7.5-3.359375 7.5-7.5v-389.425781c0-1.988281-.789062-3.894531-2.195312-5.304688zm-12.804688 387.230469h-285v-378.820312l103.179688-103.179688h78.640624l103.179688 103.179688zm0 0"/><path d="m187.5 30h-60c-1.988281 0-3.898438.789062-5.304688 2.195312l-90 90c-1.40625 1.40625-2.195312 3.316407-2.195312 5.304688v158.5c0 4.140625 3.355469 7.5 7.5 7.5s7.5-3.359375 7.5-7.5v-155.394531l85.605469-85.605469h53.789062l85.605469 85.605469v336.394531h-225v-151c0-4.140625-3.355469-7.5-7.5-7.5s-7.5 3.359375-7.5 7.5v158.5c0 4.140625 3.355469 7.5 7.5 7.5h240c4.140625 0 7.5-3.359375 7.5-7.5v-347c0-1.988281-.789062-3.898438-2.195312-5.304688l-90-90c-1.410157-1.40625-3.316407-2.195312-5.304688-2.195312zm0 0"/></svg>