<svg height="512pt" viewBox="-67 0 512 512" width="512pt" xmlns="http://www.w3.org/2000/svg"><path d="m370.5 420.667969c4.144531 0 7.5-3.359375 7.5-7.5v-45.667969c0-4.140625-3.355469-7.5-7.5-7.5h-330c-4.140625 0-7.5 3.359375-7.5 7.5v38.167969h-25.5c-4.140625 0-7.5 3.355469-7.5 7.5v45.667969c0 4.140624 3.359375 7.5 7.5 7.5h25.5v38.164062c0 4.140625 3.359375 7.5 7.5 7.5h330c4.144531 0 7.5-3.359375 7.5-7.5v-45.667969c0-4.140625-3.355469-7.5-7.5-7.5h-25.5v-30.667969h25.5zm-7.5-15h-51v-30.667969h51zm-117 0v-30.667969h51v30.667969zm-114 15v30.667969h-51v-30.667969zm48-15v-30.667969h51v30.667969zm-33 45.664062v-30.667969h51v30.667969zm18-45.664062h-51v-30.667969h51zm0 60.664062v30.667969h-51v-30.667969zm15 0h51v30.667969h-51zm66 0h51v30.667969h-51zm-33-15v-30.667969h51v30.667969zm-165-76.332031h51v30.667969h-51zm-33 76.332031v-30.667969h51v30.667969zm33 15h51v30.667969h-51zm315 30.667969h-51v-30.667969h51zm-33-45.667969h-51v-30.667969h51zm0 0"/><path d="m156.5 225c-4.140625 0-7.5 3.359375-7.5 7.5s3.359375 7.5 7.5 7.5h65c4.144531 0 7.5-3.359375 7.5-7.5s-3.355469-7.5-7.5-7.5h-2.5v-112.5c0-4.140625-3.355469-7.5-7.5-7.5h-55c-4.140625 0-7.5 3.359375-7.5 7.5s3.359375 7.5 7.5 7.5h2.5v105zm17.5-105h30v105h-30zm0 0"/><path d="m189 345c95.117188 0 172.5-77.382812 172.5-172.5s-77.382812-172.5-172.5-172.5-172.5 77.382812-172.5 172.5 77.382812 172.5 172.5 172.5zm0-330c86.847656 0 157.5 70.652344 157.5 157.5s-70.652344 157.5-157.5 157.5-157.5-70.652344-157.5-157.5 70.652344-157.5 157.5-157.5zm0 0"/><path d="m189 315c78.574219 0 142.5-63.925781 142.5-142.5s-63.925781-142.5-142.5-142.5-142.5 63.925781-142.5 142.5 63.925781 142.5 142.5 142.5zm0-270c70.304688 0 127.5 57.195312 127.5 127.5s-57.195312 127.5-127.5 127.5-127.5-57.195312-127.5-127.5 57.195312-127.5 127.5-127.5zm0 0"/><path d="m189 285c62.03125 0 112.5-50.46875 112.5-112.5s-50.46875-112.5-112.5-112.5c-24.476562 0-47.765625 7.757812-67.347656 22.4375-3.3125 2.484375-3.988282 7.183594-1.503906 10.5 2.484374 3.3125 7.1875 3.984375 10.5 1.5 16.964843-12.714844 37.144531-19.4375 58.351562-19.4375 53.761719 0 97.5 43.738281 97.5 97.5s-43.738281 97.5-97.5 97.5-97.5-43.738281-97.5-97.5c0-21.207031 6.722656-41.386719 19.4375-58.351562 2.484375-3.3125 1.8125-8.015626-1.5-10.5-3.316406-2.484376-8.015625-1.8125-10.5 1.503906-14.679688 19.582031-22.4375 42.871094-22.4375 67.347656 0 62.03125 50.46875 112.5 112.5 112.5zm0 0"/></svg>