<svg xmlns="http://www.w3.org/2000/svg" xmlns:xlink="http://www.w3.org/1999/xlink"><symbol id="label" viewBox="-98 0 512 512"><title>label</title><path d="M195 127.5c0-20.68-16.82-37.5-37.5-37.5S120 106.82 120 127.5s16.82 37.5 37.5 37.5 37.5-16.824 37.5-37.5zm-60 0c0-12.406 10.094-22.5 22.5-22.5s22.5 10.094 22.5 22.5-10.094 22.5-22.5 22.5-22.5-10.094-22.5-22.5zm0 0"/><path d="M312.805 109.77L205.23 2.195A7.51 7.51 0 0 0 199.926 0h-84.852c-1.988 0-3.898.79-5.304 2.195L2.195 109.77A7.51 7.51 0 0 0 0 115.074V504.5a7.5 7.5 0 0 0 7.5 7.5h300c4.14 0 7.5-3.36 7.5-7.5V115.074a7.51 7.51 0 0 0-2.195-5.304zM300 497H15V118.18L118.18 15h78.64L300 118.18zm0 0"/><path d="M187.5 30h-60c-1.988 0-3.898.79-5.305 2.195l-90 90A7.504 7.504 0 0 0 30 127.5V286c0 4.14 3.355 7.5 7.5 7.5s7.5-3.36 7.5-7.5V130.605L130.605 45h53.79L270 130.605V467H45V316c0-4.14-3.355-7.5-7.5-7.5S30 311.86 30 316v158.5a7.5 7.5 0 0 0 7.5 7.5h240c4.14 0 7.5-3.36 7.5-7.5v-347c0-1.988-.79-3.898-2.195-5.305l-90-90A7.51 7.51 0 0 0 187.5 30zm0 0"/></symbol><use xlink:href="#label" width="512" height="512"/><view id="label-fragment" viewBox="0 0 512 512"/><symbol id="pricing" viewBox="-67 0 512 512"><title>pricing</title><path d="M370.5 420.668a7.5 7.5 0 0 0 7.5-7.5V367.5a7.5 7.5 0 0 0-7.5-7.5h-330c-4.14 0-7.5 3.36-7.5 7.5v38.168H7.5a7.5 7.5 0 0 0-7.5 7.5v45.668c0 4.14 3.36 7.5 7.5 7.5H33V504.5c0 4.14 3.36 7.5 7.5 7.5h330a7.5 7.5 0 0 0 7.5-7.5v-45.668a7.5 7.5 0 0 0-7.5-7.5H345v-30.668h25.5zm-7.5-15h-51V375h51zm-117 0V375h51v30.668zm-114 15v30.668H81v-30.668zm48-15V375h51v30.668zm-33 45.664v-30.668h51v30.668zm18-45.664h-51V375h51zm0 60.664V497h-51v-30.668zm15 0h51V497h-51zm66 0h51V497h-51zm-33-15v-30.668h51v30.668zM48 375h51v30.668H48zm-33 76.332v-30.668h51v30.668zm33 15h51V497H48zM363 497h-51v-30.668h51zm-33-45.668h-51v-30.668h51zM156.5 225c-4.14 0-7.5 3.36-7.5 7.5s3.36 7.5 7.5 7.5h65a7.5 7.5 0 1 0 0-15H219V112.5a7.5 7.5 0 0 0-7.5-7.5h-55c-4.14 0-7.5 3.36-7.5 7.5s3.36 7.5 7.5 7.5h2.5v105zM174 120h30v105h-30zm0 0"/><path d="M189 345c95.117 0 172.5-77.383 172.5-172.5S284.117 0 189 0 16.5 77.383 16.5 172.5 93.883 345 189 345zm0-330c86.848 0 157.5 70.652 157.5 157.5S275.848 330 189 330 31.5 259.348 31.5 172.5 102.152 15 189 15zm0 0"/><path d="M189 315c78.574 0 142.5-63.926 142.5-142.5S267.574 30 189 30 46.5 93.926 46.5 172.5 110.426 315 189 315zm0-270c70.305 0 127.5 57.195 127.5 127.5S259.305 300 189 300 61.5 242.805 61.5 172.5 118.695 45 189 45zm0 0"/><path d="M189 285c62.031 0 112.5-50.469 112.5-112.5S251.031 60 189 60c-24.477 0-47.766 7.758-67.348 22.438a7.502 7.502 0 0 0-1.504 10.5 7.502 7.502 0 0 0 10.5 1.5C147.613 81.722 167.793 75 189 75c53.762 0 97.5 43.738 97.5 97.5S242.762 270 189 270s-97.5-43.738-97.5-97.5c0-21.207 6.723-41.387 19.438-58.352a7.499 7.499 0 1 0-12-8.996C84.257 124.734 76.5 148.023 76.5 172.5 76.5 234.531 126.969 285 189 285zm0 0"/></symbol><use xlink:href="#pricing" y="512" width="512" height="512"/><view id="pricing-fragment" viewBox="0 512 512 512"/><symbol id="speaker" viewBox="0 -7 512 512"><title>speaker</title><path d="M507.766 190.75L450 162.797V22.5C450 10.094 439.906 0 427.5 0S405 10.094 405 22.5v7.965C358.453 95.965 282.937 135 202.5 135h-135c-18.11 0-33.262 12.902-36.746 30H7.5c-4.14 0-7.5 3.36-7.5 7.5v120c0 4.14 3.36 7.5 7.5 7.5h23.254c3.484 17.098 18.637 30 36.746 30h9.277l36.211 132.293C117.887 481.762 137.422 497 157.5 497h45c12.406 0 22.5-10.094 22.5-22.5 0-9.777-6.27-18.121-15-21.215V330.113c77.613 2.344 149.902 40.961 195 104.422v7.965c0 12.406 10.094 22.5 22.5 22.5s22.5-10.094 22.5-22.5V302.203l57.766-27.953A7.495 7.495 0 0 0 512 267.5v-70c0-2.875-1.645-5.5-4.234-6.75zM30 225H15v-15h15zm-15 15h15v15H15zm15-60v15H15v-15zm-15 90h15v15H15zm30 22.5v-120c0-12.406 10.094-22.5 22.5-22.5H75v22.5c0 4.14 3.36 7.5 7.5 7.5s7.5-3.36 7.5-7.5V150h105v165H90V202.5c0-4.14-3.36-7.5-7.5-7.5s-7.5 3.36-7.5 7.5V315h-7.5C55.094 315 45 304.906 45 292.5zm150 111.71c-8.73-3.097-15-11.433-15-21.21v-53h15zm7.5 77.79h-45c-13.086 0-26.813-10.727-29.98-23.422-.012-.055-.028-.11-.043-.168L92.328 330H165v53c0 18.11 12.902 33.262 30 36.746V459.5c0 4.14 3.36 7.5 7.5 7.5 4.137 0 7.5 3.363 7.5 7.5s-3.363 7.5-7.5 7.5zm7.5-166.89V149.89c75.777-2.16 146.805-36.925 195-94.847v354.914c-48.195-57.922-119.223-92.687-195-94.848zM435 442.5c0 4.137-3.363 7.5-7.5 7.5s-7.5-3.363-7.5-7.5v-420c0-4.137 3.363-7.5 7.5-7.5s7.5 3.363 7.5 7.5zm62-179.703l-47 22.742V179.461l47 22.742zm0 0"/></symbol><use xlink:href="#speaker" y="1024" width="512" height="512"/><view id="speaker-fragment" viewBox="0 1024 512 512"/></svg>